<svg xmlns="http://www.w3.org/2000/svg" viewBox="0 0 1080 400" width="1080" height="400" role="img" aria-label="Instituto Aeviternitas">
  <title>Instituto Aeviternitas - brasao horizontal</title>
  <desc>De sable, um chefe de ouro carregado de tres ogivas do campo, em arco apontado de dois centros; brocante sobre o todo, duas chaves em sautor de ouro, as guardas em chefe; sobre as chaves, um livro aberto de prata pautado de sinople. Timbre: coroa aberta de ouro, de tres pontas e duas perolas, assentada sobre o escudo e separada do chefe por um filete do campo. Divisa QVOD MANET em cartela de prata perfilada de ouro. Toda a tipografia esta convertida em contornos: o arquivo nao depende de fontes instaladas.</desc>
  <defs>
    <clipPath id="ae-inner"><path d="M0,0 H332 V139 C332,278 242,362 166,402 C90,362 0,278 0,139 Z"></path></clipPath>
    <clipPath id="ae-book"><path d="M0,11.5 L70,0 L140,11.5 L140,72 L70,62 L0,72 Z"></path></clipPath>
  </defs>
  <g transform="translate(24,26) scale(0.6)">
    <g id="coroa-aberta">
      <path d="M69,0 L91,44 L47,44 Z" fill="#c08a3e"></path>
      <path d="M180,0 L202,44 L158,44 Z" fill="#c08a3e"></path>
      <path d="M291,0 L313,44 L269,44 Z" fill="#c08a3e"></path>
      <circle cx="124" cy="21" r="8" fill="#c08a3e"></circle>
      <circle cx="236" cy="21" r="8" fill="#c08a3e"></circle>
      <rect x="35" y="22" width="290" height="22" fill="#c08a3e"></rect>
      <rect x="35" y="38" width="290" height="6" fill="#201e1d"></rect>
    </g>
    <g id="escudo" transform="translate(0,44)">
      <path d="M0,0 H360 V150 C360,300 262,392 180,436 C98,392 0,300 0,150 Z" fill="#c08a3e"></path>
      <g transform="translate(14,14)" clip-path="url(#ae-inner)">
        <path d="M0,0 H332 V139 C332,278 242,362 166,402 C90,362 0,278 0,139 Z" fill="#201e1d"></path>
        <rect x="0" y="0" width="332" height="64" fill="#c08a3e"></rect>
        <path d="M52,58 L52,46 A40.45 40.45 0 0 1 74,10 A40.45 40.45 0 0 1 96,46 L96,58 Z" fill="#201e1d"></path>
        <path d="M144,58 L144,46 A40.45 40.45 0 0 1 166,10 A40.45 40.45 0 0 1 188,46 L188,58 Z" fill="#201e1d"></path>
        <path d="M236,58 L236,46 A40.45 40.45 0 0 1 258,10 A40.45 40.45 0 0 1 280,46 L280,58 Z" fill="#201e1d"></path>
        <g id="chaves-em-sautor">
        <g transform="translate(136,96) rotate(38 30 90)">
          <circle cx="28" cy="156" r="18.5" fill="none" stroke="#c08a3e" stroke-width="11"></circle>
          <rect x="24" y="10" width="12" height="130" fill="#c08a3e"></rect>
          <rect x="36" y="20" width="26" height="11" fill="#c08a3e"></rect>
          <rect x="36" y="42" width="17" height="11" fill="#c08a3e"></rect>
        </g>
        <g transform="translate(136,96) rotate(-38 30 90) scale(-1,1) translate(-60,0)">
          <circle cx="28" cy="156" r="18.5" fill="none" stroke="#c08a3e" stroke-width="11"></circle>
          <rect x="24" y="10" width="12" height="130" fill="#c08a3e"></rect>
          <rect x="36" y="20" width="26" height="11" fill="#c08a3e"></rect>
          <rect x="36" y="42" width="17" height="11" fill="#c08a3e"></rect>
        </g>
        </g>
        <g id="livro-aberto" transform="translate(96,270)" clip-path="url(#ae-book)">
          <path d="M0,11.5 L70,0 L140,11.5 L140,72 L70,62 L0,72 Z" fill="#f5ead8"></path>
          <g fill="#56633f"><rect x="0" y="16" width="140" height="1.6"></rect><rect x="0" y="25" width="140" height="1.6"></rect><rect x="0" y="34" width="140" height="1.6"></rect><rect x="0" y="43" width="140" height="1.6"></rect><rect x="0" y="52" width="140" height="1.6"></rect></g>
          <rect x="67" y="2" width="6" height="68" fill="#201e1d"></rect>
        </g>
      </g>
    </g>
  </g>
  <g id="letreiro" transform="translate(268,0)">
    <path d="M1.63 150.17L1.63 150.17Q1.19 150.17 0.92 150.1Q0.65 150 0.65 149.8L0.65 149.8Q0.65 149.39 1.77 149.18L1.77 149.18Q3.06 148.95 3.74 148.4Q4.42 147.86 4.42 146.67L4.42 146.67L4.42 131.3Q4.42 130.11 3.94 129.6Q3.43 129.09 2.14 128.85L2.14 128.85Q1.02 128.65 1.02 128.17L1.02 128.17Q1.02 127.97 1.29 127.9Q1.56 127.8 2.01 127.8L2.01 127.8Q2.92 127.8 3.54 127.83Q4.11 127.87 4.66 127.9Q5.2 127.9 5.98 127.9L5.98 127.9Q6.73 127.9 7.21 127.9Q7.68 127.87 8.23 127.83Q8.77 127.8 9.69 127.8L9.69 127.8Q10.13 127.8 10.4 127.9Q10.68 127.97 10.68 128.17L10.68 128.17Q10.68 128.41 10.4 128.58Q10.13 128.75 9.55 128.85L9.55 128.85Q8.3 129.09 7.72 129.6Q7.14 130.11 7.14 131.3L7.14 131.3L7.14 146.67Q7.14 147.86 7.85 148.4Q8.57 148.95 9.83 149.18L9.83 149.18Q10.4 149.29 10.68 149.42Q10.95 149.56 10.95 149.8L10.95 149.8Q10.95 150 10.68 150.1Q10.4 150.17 9.96 150.17L9.96 150.17Q9.04 150.17 8.47 150.14Q7.85 150.07 7.31 150.03Q6.77 150 5.98 150L5.98 150Q5.13 150 4.52 150.03Q3.88 150.07 3.23 150.14Q2.55 150.17 1.63 150.17Z M48.27 150.58L48.27 150.58Q47.97 150.58 47.08 150.07Q46.16 149.56 45.35 148.44L45.35 148.44Q45.21 148.27 44.53 147.42Q43.82 146.57 42.76 145.27Q41.68 144.02 40.42 142.52Q39.16 141.02 37.9 139.53Q36.64 138.03 35.56 136.74Q34.47 135.48 33.75 134.6Q33.01 133.75 32.84 133.54L32.84 133.54Q32.6 133.24 32.43 133.1Q32.26 133 32.12 133L32.12 133Q31.95 133 31.88 133.24Q31.82 133.51 31.82 133.71L31.82 133.71Q31.78 135.38 31.75 137.56Q31.71 139.73 31.68 142.04Q31.65 144.36 31.65 146.46L31.65 146.46Q31.65 147.38 32.12 148.16Q32.56 148.95 33.82 149.18L33.82 149.18Q34.4 149.29 34.67 149.42Q34.94 149.56 34.94 149.8L34.94 149.8Q34.94 150 34.67 150.1Q34.4 150.17 33.96 150.17L33.96 150.17Q33.04 150.17 32.6 150.14Q32.12 150.07 31.78 150.03Q31.41 150 30.76 150L30.76 150Q30.15 150 29.81 150.03Q29.47 150.07 29.03 150.14Q28.59 150.17 27.67 150.17L27.67 150.17Q27.23 150.17 26.95 150.1Q26.68 150 26.68 149.8L26.68 149.8Q26.68 149.56 26.95 149.42Q27.23 149.29 27.8 149.15L27.8 149.15Q28.79 148.88 29.23 148.13Q29.67 147.42 29.78 146.36L29.78 146.36Q29.91 145.07 30.05 142.93Q30.18 140.82 30.29 138.17Q30.39 135.55 30.39 132.76L30.39 132.76Q30.39 130.96 29.47 130.18Q28.52 129.4 27.02 128.92L27.02 128.92Q26.89 128.85 26.44 128.61Q25.97 128.41 25.97 128.1L25.97 128.1Q25.97 127.8 26.27 127.73Q26.58 127.63 26.75 127.63L26.75 127.63Q27.74 127.66 28.35 127.66Q28.96 127.7 29.44 127.73Q29.91 127.76 30.49 127.76Q31.07 127.8 31.99 127.8L31.99 127.8Q32.29 127.8 32.46 127.97Q32.63 128.14 32.8 128.38L32.8 128.38Q32.94 128.58 33.72 129.5Q34.47 130.45 35.62 131.84Q36.75 133.27 38.11 134.9Q39.47 136.57 40.83 138.24Q42.19 139.87 43.34 141.26Q44.5 142.69 45.28 143.61Q46.03 144.53 46.16 144.7L46.16 144.7Q46.3 144.83 46.57 145.1Q46.81 145.38 47.01 145.38L47.01 145.38Q47.32 145.38 47.35 144.66L47.35 144.66Q47.35 144.19 47.39 142.83Q47.39 141.5 47.42 139.56Q47.42 137.66 47.42 135.41Q47.42 133.17 47.42 130.82L47.42 130.82Q47.39 130.14 46.71 129.6Q46.03 129.06 45.45 128.95L45.45 128.95Q44.87 128.85 44.4 128.68Q43.92 128.51 43.92 128.27L43.92 128.27Q43.92 128.07 44.4 127.97Q44.87 127.9 45.31 127.9L45.31 127.9Q45.65 127.9 45.99 127.9Q46.3 127.9 46.64 127.9Q46.95 127.9 47.25 127.9L47.25 127.9Q48.07 127.9 48.54 127.9Q49.02 127.87 49.6 127.83Q50.14 127.8 51.16 127.8L51.16 127.8Q51.6 127.8 51.88 127.9Q52.15 127.97 52.15 128.17L52.15 128.17Q52.15 128.65 51.03 128.85L51.03 128.85Q49.77 129.09 49.36 129.46Q48.95 129.84 48.88 130.69L48.88 130.69Q48.88 130.86 48.85 132.01Q48.85 133.17 48.85 134.94Q48.85 136.71 48.85 138.75Q48.82 140.79 48.82 142.79Q48.82 144.83 48.82 146.43L48.82 146.43Q48.82 147.25 48.85 147.89Q48.92 148.57 48.95 149.01Q48.99 149.49 48.99 149.73L48.99 149.73Q48.99 150.27 48.78 150.44Q48.54 150.58 48.27 150.58Z M73.42 150.54L73.42 150.54Q72 150.54 70.81 150.14Q69.58 149.69 68.63 148.91L68.63 148.91Q68.49 148.78 68.39 148.61Q68.26 148.44 68.19 148.23L68.19 148.23Q68.02 147.55 67.98 146.46Q67.92 145.38 67.85 144.66L67.85 144.66Q67.85 144.42 68.05 144.29Q68.26 144.19 68.53 144.19L68.53 144.19Q68.7 144.19 68.87 144.25Q69.04 144.36 69.07 144.56L69.07 144.56Q69.75 147.18 71.11 148.3Q72.44 149.42 73.9 149.42L73.9 149.42Q75.09 149.42 76.01 148.91Q76.93 148.4 77.47 147.45Q77.98 146.53 77.98 145.27L77.98 145.27Q77.98 143.88 77.54 143Q77.06 142.15 76.21 141.5Q75.36 140.85 74.14 140.11L74.14 140.11Q72.81 139.26 71.52 138.41Q70.23 137.52 69.38 136.37Q68.53 135.24 68.53 133.61L68.53 133.61Q68.53 131.88 69.31 130.48Q70.09 129.09 71.69 128.24Q73.25 127.42 75.63 127.42L75.63 127.42Q76.86 127.42 77.74 127.66Q78.66 127.93 79.2 128.17L79.2 128.17Q79.48 128.27 79.68 128.51Q79.85 128.75 79.92 129.02L79.92 129.02Q80.12 129.74 80.36 130.65Q80.6 131.57 80.6 132.39L80.6 132.39Q80.6 132.76 80.09 132.76L80.09 132.76Q79.78 132.76 79.51 132.63Q79.2 132.49 79.14 132.29L79.14 132.29Q78.42 130.48 77.47 129.53Q76.52 128.58 75.06 128.58L75.06 128.58Q74.04 128.58 73.15 128.95Q72.27 129.33 71.72 130.18Q71.15 131.03 71.15 132.46L71.15 132.46Q71.15 133.48 71.83 134.29Q72.47 135.14 73.56 135.89Q74.65 136.64 75.91 137.42L75.91 137.42Q77.1 138.13 78.25 138.98Q79.37 139.83 80.12 140.99Q80.84 142.18 80.84 143.88L80.84 143.88Q80.84 145.89 79.92 147.38Q79 148.91 77.33 149.73Q75.67 150.54 73.42 150.54Z M103.57 150.17L103.57 150.17Q103.13 150.17 102.86 150.1Q102.59 150 102.59 149.8L102.59 149.8Q102.59 149.56 102.86 149.42Q103.13 149.29 103.71 149.18L103.71 149.18Q105 148.95 105.68 148.33Q106.36 147.76 106.36 146.53L106.36 146.53L106.36 133.34Q106.36 131.78 106.29 130.93Q106.23 130.11 106.09 129.77Q105.92 129.43 105.65 129.4L105.65 129.4Q105.17 129.29 104.66 129.26Q104.12 129.26 103.23 129.26L103.23 129.26L101.64 129.26Q100.82 129.26 100.04 129.57Q99.22 129.91 98.85 130.59L98.85 130.59Q98.75 130.76 98.51 131.06Q98.27 131.4 98 131.64Q97.73 131.88 97.45 131.88L97.45 131.88Q97.32 131.88 97.28 131.74Q97.22 131.61 97.22 131.44L97.22 131.44Q97.22 131.1 97.39 130.76L97.39 130.76Q97.86 129.77 98.1 128.99Q98.3 128.24 98.44 127.19L98.44 127.19Q98.51 126.61 98.71 126.51Q98.88 126.4 99.02 126.4L99.02 126.4Q99.15 126.4 99.46 126.81Q99.73 127.22 99.87 127.49L99.87 127.49Q100.07 127.83 100.82 128Q101.53 128.17 102.25 128.17L102.25 128.17L114.22 128.17Q115.41 128.17 116.15 128.04Q116.9 127.9 117.45 127.66L117.45 127.66Q117.85 127.46 118.13 127.22Q118.36 126.98 118.77 126.98L118.77 126.98Q118.87 126.98 118.94 127.22Q119.01 127.49 119.01 127.76L119.01 127.76Q119.01 127.93 118.98 128.24Q118.91 128.55 118.87 128.72L118.87 128.72Q118.77 129.33 118.7 129.6Q118.6 129.87 118.57 130.08Q118.53 130.28 118.53 130.72L118.53 130.72L118.53 131.13Q118.53 131.44 118.4 131.81Q118.26 132.22 117.99 132.22L117.99 132.22Q117.75 132.22 117.62 131.84Q117.48 131.47 117.34 130.82L117.34 130.82Q117.21 130.11 116.53 129.67Q115.85 129.26 114.22 129.26L114.22 129.26L110.78 129.26Q110.03 129.26 109.66 129.46Q109.29 129.67 109.18 130.48Q109.08 131.3 109.08 133.17L109.08 133.17L109.08 146.53Q109.08 147.76 109.8 148.33Q110.51 148.95 111.77 149.18L111.77 149.18Q112.35 149.29 112.62 149.42Q112.89 149.56 112.89 149.8L112.89 149.8Q112.89 150 112.62 150.1Q112.35 150.17 111.9 150.17L111.9 150.17Q110.99 150.17 110.41 150.14Q109.8 150.07 109.25 150.03Q108.71 150 107.93 150L107.93 150Q107.08 150 106.46 150.03Q105.82 150.07 105.17 150.14Q104.49 150.17 103.57 150.17Z M134.71 150.17L134.71 150.17Q134.27 150.17 134 150.1Q133.72 150 133.72 149.8L133.72 149.8Q133.72 149.39 134.85 149.18L134.85 149.18Q136.14 148.95 136.82 148.4Q137.5 147.86 137.5 146.67L137.5 146.67L137.5 131.3Q137.5 130.11 137.02 129.6Q136.51 129.09 135.22 128.85L135.22 128.85Q134.1 128.65 134.1 128.17L134.1 128.17Q134.1 127.97 134.37 127.9Q134.64 127.8 135.08 127.8L135.08 127.8Q136 127.8 136.61 127.83Q137.19 127.87 137.74 127.9Q138.28 127.9 139.06 127.9L139.06 127.9Q139.81 127.9 140.29 127.9Q140.76 127.87 141.31 127.83Q141.85 127.8 142.77 127.8L142.77 127.8Q143.21 127.8 143.48 127.9Q143.75 127.97 143.75 128.17L143.75 128.17Q143.75 128.41 143.48 128.58Q143.21 128.75 142.63 128.85L142.63 128.85Q141.37 129.09 140.8 129.6Q140.22 130.11 140.22 131.3L140.22 131.3L140.22 146.67Q140.22 147.86 140.93 148.4Q141.65 148.95 142.9 149.18L142.9 149.18Q143.48 149.29 143.75 149.42Q144.03 149.56 144.03 149.8L144.03 149.8Q144.03 150 143.75 150.1Q143.48 150.17 143.04 150.17L143.04 150.17Q142.12 150.17 141.54 150.14Q140.93 150.07 140.39 150.03Q139.84 150 139.06 150L139.06 150Q138.21 150 137.6 150.03Q136.95 150.07 136.31 150.14Q135.63 150.17 134.71 150.17Z M165.09 150.17L165.09 150.17Q164.65 150.17 164.38 150.1Q164.11 150 164.11 149.8L164.11 149.8Q164.11 149.56 164.38 149.42Q164.65 149.29 165.23 149.18L165.23 149.18Q166.52 148.95 167.2 148.33Q167.88 147.76 167.88 146.53L167.88 146.53L167.88 133.34Q167.88 131.78 167.81 130.93Q167.75 130.11 167.61 129.77Q167.44 129.43 167.17 129.4L167.17 129.4Q166.69 129.29 166.18 129.26Q165.64 129.26 164.75 129.26L164.75 129.26L163.16 129.26Q162.34 129.26 161.56 129.57Q160.74 129.91 160.37 130.59L160.37 130.59Q160.27 130.76 160.03 131.06Q159.79 131.4 159.52 131.64Q159.25 131.88 158.97 131.88L158.97 131.88Q158.84 131.88 158.8 131.74Q158.74 131.61 158.74 131.44L158.74 131.44Q158.74 131.1 158.91 130.76L158.91 130.76Q159.38 129.77 159.62 128.99Q159.82 128.24 159.96 127.19L159.96 127.19Q160.03 126.61 160.23 126.51Q160.4 126.4 160.54 126.4L160.54 126.4Q160.67 126.4 160.98 126.81Q161.25 127.22 161.39 127.49L161.39 127.49Q161.59 127.83 162.34 128Q163.05 128.17 163.77 128.17L163.77 128.17L175.74 128.17Q176.93 128.17 177.67 128.04Q178.42 127.9 178.97 127.66L178.97 127.66Q179.37 127.46 179.65 127.22Q179.88 126.98 180.29 126.98L180.29 126.98Q180.39 126.98 180.46 127.22Q180.53 127.49 180.53 127.76L180.53 127.76Q180.53 127.93 180.5 128.24Q180.43 128.55 180.39 128.72L180.39 128.72Q180.29 129.33 180.22 129.6Q180.12 129.87 180.09 130.08Q180.05 130.28 180.05 130.72L180.05 130.72L180.05 131.13Q180.05 131.44 179.92 131.81Q179.78 132.22 179.51 132.22L179.51 132.22Q179.27 132.22 179.14 131.84Q179 131.47 178.86 130.82L178.86 130.82Q178.73 130.11 178.05 129.67Q177.37 129.26 175.74 129.26L175.74 129.26L172.3 129.26Q171.55 129.26 171.18 129.46Q170.81 129.67 170.7 130.48Q170.6 131.3 170.6 133.17L170.6 133.17L170.6 146.53Q170.6 147.76 171.32 148.33Q172.03 148.95 173.29 149.18L173.29 149.18Q173.87 149.29 174.14 149.42Q174.41 149.56 174.41 149.8L174.41 149.8Q174.41 150 174.14 150.1Q173.87 150.17 173.42 150.17L173.42 150.17Q172.51 150.17 171.93 150.14Q171.32 150.07 170.77 150.03Q170.23 150 169.45 150L169.45 150Q168.6 150 167.98 150.03Q167.34 150.07 166.69 150.14Q166.01 150.17 165.09 150.17Z M205.95 150.41L205.95 150.41Q205.68 150.41 205.58 150.17L205.58 150.17Q205.44 149.8 205.24 149.15Q205.03 148.54 204.86 148.1L204.86 148.1L198.64 131.4Q198.3 130.45 197.72 129.8Q197.14 129.16 196.26 128.92L196.26 128.92Q195.72 128.75 195.44 128.58Q195.14 128.41 195.14 128.17L195.14 128.17Q195.14 127.97 195.41 127.9Q195.68 127.8 196.12 127.8L196.12 127.8Q196.67 127.8 197.35 127.83Q197.99 127.87 198.74 127.9Q199.49 127.9 200.27 127.9L200.27 127.9Q200.95 127.9 201.63 127.9Q202.28 127.87 202.86 127.83Q203.4 127.83 203.74 127.83L203.74 127.83Q204.18 127.83 204.45 127.9Q204.73 128 204.73 128.21L204.73 128.21Q204.73 128.44 204.45 128.61Q204.18 128.82 203.6 128.89L203.6 128.89Q202.65 128.99 202.04 129.29Q201.39 129.63 201.39 130.21L201.39 130.21Q201.39 130.79 201.56 131.2Q201.7 131.64 201.77 131.88L201.77 131.88L206.66 144.8Q206.73 144.93 206.83 144.97Q206.94 145 207.04 144.76L207.04 144.76L211.7 132.52Q212.38 130.72 211.8 129.87Q211.19 129.06 210.1 128.92L210.1 128.92Q209.59 128.85 209.28 128.65Q208.98 128.48 208.98 128.24L208.98 128.24Q208.98 128.04 209.25 127.93Q209.52 127.87 209.96 127.87L209.96 127.87Q210.4 127.87 210.95 127.87Q211.49 127.87 212.1 127.9Q212.68 127.9 213.33 127.9L213.33 127.9Q214.31 127.9 215.44 127.83Q216.56 127.8 217.2 127.8L217.2 127.8Q217.65 127.8 217.92 127.9Q218.19 127.97 218.19 128.17L218.19 128.17Q218.19 128.41 217.92 128.55Q217.65 128.72 217.07 128.85L217.07 128.85Q215.81 129.12 214.96 130.01Q214.11 130.89 213.74 131.81L213.74 131.81L207.34 147.31Q207.28 147.48 207.07 147.99Q206.9 148.54 206.7 149.15Q206.49 149.76 206.29 150.17L206.29 150.17Q206.26 150.27 206.15 150.34Q206.05 150.41 205.95 150.41Z M239.26 150.17L239.26 150.17Q238.82 150.17 238.55 150.1Q238.28 150 238.28 149.8L238.28 149.8Q238.28 149.56 238.55 149.42Q238.82 149.29 239.4 149.18L239.4 149.18Q240.69 148.95 241.37 148.33Q242.05 147.76 242.05 146.53L242.05 146.53L242.05 133.34Q242.05 131.78 241.98 130.93Q241.91 130.11 241.78 129.77Q241.61 129.43 241.34 129.4L241.34 129.4Q240.86 129.29 240.35 129.26Q239.81 129.26 238.92 129.26L238.92 129.26L237.32 129.26Q236.51 129.26 235.73 129.57Q234.91 129.91 234.54 130.59L234.54 130.59Q234.43 130.76 234.2 131.06Q233.96 131.4 233.69 131.64Q233.41 131.88 233.14 131.88L233.14 131.88Q233.01 131.88 232.97 131.74Q232.9 131.61 232.9 131.44L232.9 131.44Q232.9 131.1 233.07 130.76L233.07 130.76Q233.55 129.77 233.79 128.99Q233.99 128.24 234.13 127.19L234.13 127.19Q234.2 126.61 234.4 126.51Q234.57 126.4 234.71 126.4L234.71 126.4Q234.84 126.4 235.15 126.81Q235.42 127.22 235.56 127.49L235.56 127.49Q235.76 127.83 236.51 128Q237.22 128.17 237.94 128.17L237.94 128.17L249.9 128.17Q251.09 128.17 251.84 128.04Q252.59 127.9 253.13 127.66L253.13 127.66Q253.54 127.46 253.81 127.22Q254.05 126.98 254.46 126.98L254.46 126.98Q254.56 126.98 254.63 127.22Q254.7 127.49 254.7 127.76L254.7 127.76Q254.7 127.93 254.66 128.24Q254.6 128.55 254.56 128.72L254.56 128.72Q254.46 129.33 254.39 129.6Q254.29 129.87 254.26 130.08Q254.22 130.28 254.22 130.72L254.22 130.72L254.22 131.13Q254.22 131.44 254.09 131.81Q253.95 132.22 253.68 132.22L253.68 132.22Q253.44 132.22 253.3 131.84Q253.17 131.47 253.03 130.82L253.03 130.82Q252.9 130.11 252.22 129.67Q251.54 129.26 249.9 129.26L249.9 129.26L246.47 129.26Q245.72 129.26 245.35 129.46Q244.97 129.67 244.87 130.48Q244.77 131.3 244.77 133.17L244.77 133.17L244.77 146.53Q244.77 147.76 245.48 148.33Q246.2 148.95 247.46 149.18L247.46 149.18Q248.03 149.29 248.31 149.42Q248.58 149.56 248.58 149.8L248.58 149.8Q248.58 150 248.31 150.1Q248.03 150.17 247.59 150.17L247.59 150.17Q246.67 150.17 246.1 150.14Q245.48 150.07 244.94 150.03Q244.4 150 243.61 150L243.61 150Q242.76 150 242.15 150.03Q241.51 150.07 240.86 150.14Q240.18 150.17 239.26 150.17Z M279.58 150.41L279.58 150.41Q279.31 150.41 279.2 150.17L279.2 150.17Q279.07 149.8 278.86 149.15Q278.66 148.54 278.49 148.1L278.49 148.1L272.27 131.4Q271.93 130.45 271.35 129.8Q270.77 129.16 269.89 128.92L269.89 128.92Q269.34 128.75 269.07 128.58Q268.77 128.41 268.77 128.17L268.77 128.17Q268.77 127.97 269.04 127.9Q269.31 127.8 269.75 127.8L269.75 127.8Q270.3 127.8 270.98 127.83Q271.62 127.87 272.37 127.9Q273.12 127.9 273.9 127.9L273.9 127.9Q274.58 127.9 275.26 127.9Q275.91 127.87 276.48 127.83Q277.03 127.83 277.37 127.83L277.37 127.83Q277.81 127.83 278.08 127.9Q278.35 128 278.35 128.21L278.35 128.21Q278.35 128.44 278.08 128.61Q277.81 128.82 277.23 128.89L277.23 128.89Q276.28 128.99 275.67 129.29Q275.02 129.63 275.02 130.21L275.02 130.21Q275.02 130.79 275.19 131.2Q275.33 131.64 275.4 131.88L275.4 131.88L280.29 144.8Q280.36 144.93 280.46 144.97Q280.56 145 280.67 144.76L280.67 144.76L285.32 132.52Q286 130.72 285.43 129.87Q284.81 129.06 283.73 128.92L283.73 128.92Q283.22 128.85 282.91 128.65Q282.6 128.48 282.6 128.24L282.6 128.24Q282.6 128.04 282.88 127.93Q283.15 127.87 283.59 127.87L283.59 127.87Q284.03 127.87 284.58 127.87Q285.12 127.87 285.73 127.9Q286.31 127.9 286.96 127.9L286.96 127.9Q287.94 127.9 289.06 127.83Q290.19 127.8 290.83 127.8L290.83 127.8Q291.27 127.8 291.55 127.9Q291.82 127.97 291.82 128.17L291.82 128.17Q291.82 128.41 291.55 128.55Q291.27 128.72 290.7 128.85L290.7 128.85Q289.44 129.12 288.59 130.01Q287.74 130.89 287.36 131.81L287.36 131.81L280.97 147.31Q280.9 147.48 280.7 147.99Q280.53 148.54 280.33 149.15Q280.12 149.76 279.92 150.17L279.92 150.17Q279.88 150.27 279.78 150.34Q279.68 150.41 279.58 150.41Z M307.25 150.17L307.25 150.17Q306.8 150.17 306.53 150.1Q306.26 150 306.26 149.8L306.26 149.8Q306.26 149.56 306.53 149.42Q306.8 149.29 307.38 149.18L307.38 149.18Q308.23 149.01 308.78 148.37Q309.32 147.72 309.49 146.53L309.49 146.53Q309.9 143.47 310.2 140.68Q310.51 137.93 310.71 135.69Q310.88 133.48 310.88 132.05L310.88 132.05Q310.88 131.78 310.88 131.47Q310.88 131.16 310.85 130.93L310.85 130.93Q310.82 130.65 310.75 130.35Q310.68 130.08 310.34 129.8L310.34 129.8Q309.73 129.29 309.15 129.09Q308.57 128.92 307.79 128.78L307.79 128.78Q307.45 128.72 307.25 128.51Q307.04 128.34 307.04 128.1L307.04 128.1Q307.04 127.83 307.38 127.76Q307.69 127.73 308.2 127.73L308.2 127.73Q308.54 127.73 309.25 127.76Q309.93 127.8 310.75 127.87Q311.56 127.93 312.28 127.97Q312.96 128 313.3 128L313.3 128Q313.54 128 313.71 128.14Q313.88 128.27 313.94 128.55L313.94 128.55Q314.11 129.16 314.28 129.84Q314.45 130.52 314.69 131.16L314.69 131.16L320.06 144.8Q320.17 145.04 320.44 145.07Q320.71 145.14 320.85 144.9L320.85 144.9L327.54 130.96Q327.71 130.38 327.88 129.67Q328.05 128.95 328.16 128.41L328.16 128.41Q328.26 127.97 328.5 127.97L328.5 127.97L329.72 127.97Q330.74 127.97 331.9 127.83Q333.02 127.7 333.6 127.7L333.6 127.7Q333.77 127.7 334.04 127.73Q334.31 127.8 334.31 128.04L334.31 128.04Q334.31 128.27 334.14 128.41Q333.94 128.55 333.43 128.75L333.43 128.75Q332.98 128.92 332.44 129.12Q331.9 129.33 331.42 129.53L331.42 129.53Q331.08 129.67 330.84 129.97Q330.6 130.31 330.6 130.69L330.6 130.69Q330.6 133.07 330.71 135.14Q330.77 137.25 330.88 139.15Q330.98 141.09 331.11 142.96Q331.25 144.83 331.35 146.77L331.35 146.77Q331.42 147.82 332.03 148.37Q332.64 148.95 333.9 149.18L333.9 149.18Q334.48 149.29 334.75 149.42Q335.02 149.56 335.02 149.8L335.02 149.8Q335.02 150 334.75 150.1Q334.48 150.17 334.04 150.17L334.04 150.17Q333.12 150.17 332.54 150.14Q331.93 150.07 331.39 150.03Q330.84 150 330.06 150L330.06 150Q329.38 150 328.9 150.03Q328.46 150.07 327.95 150.14Q327.41 150.17 326.49 150.17L326.49 150.17Q326.05 150.17 325.78 150.1Q325.5 150 325.5 149.8L325.5 149.8Q325.5 149.56 325.78 149.39Q326.05 149.25 326.63 149.18L326.63 149.18Q327.61 149.05 327.99 148.47Q328.36 147.93 328.36 146.74L328.36 146.74Q328.36 144.29 328.33 142.32Q328.26 140.34 328.16 138.41Q328.05 136.5 327.95 134.22L327.95 134.22Q327.92 133.85 327.75 133.85Q327.58 133.88 327.41 134.22L327.41 134.22L319.59 150.17Q319.52 150.34 319.28 150.37Q319.04 150.37 318.98 150.14L318.98 150.14Q317.65 146.16 316.15 142.28Q314.62 138.44 312.72 133.99L312.72 133.99Q312.65 133.82 312.48 133.82Q312.31 133.82 312.28 133.99L312.28 133.99Q311.97 136.37 311.7 138.34Q311.46 140.34 311.33 142.28Q311.19 144.22 311.19 146.53L311.19 146.53Q311.19 147.45 311.77 148.2Q312.35 148.98 313.4 149.18L313.4 149.18Q313.98 149.29 314.25 149.42Q314.52 149.56 314.52 149.8L314.52 149.8Q314.52 150 314.25 150.1Q313.98 150.17 313.54 150.17L313.54 150.17Q312.62 150.17 312.18 150.14Q311.7 150.07 311.36 150.03Q310.99 150 310.34 150L310.34 150Q309.73 150 309.39 150.03Q309.05 150.07 308.61 150.14Q308.16 150.17 307.25 150.17Z" fill="#201e1d" opacity="0.72"></path>
    <path d="M2.27 230.42L2.27 230.42Q1.18 230.42 0.5 230.17Q-0.17 229.83 -0.17 229.33L-0.17 229.33Q-0.17 228.74 0.59 228.24Q1.26 227.82 2.6 227.4L2.6 227.4Q4.79 226.72 6.64 225.38Q8.48 224.04 9.83 220.93L9.83 220.93Q12.18 215.55 14.2 210.85Q16.13 206.14 17.89 201.61Q19.66 197.07 21.59 192.12Q23.44 187.24 25.54 181.45L25.54 181.45Q25.96 180.27 26.29 179.1Q26.63 177.92 26.71 176.58L26.71 176.58Q27.47 176.32 28.22 176.07Q28.98 175.82 29.74 175.32L29.74 175.32Q30.49 174.81 30.74 173.8Q31.08 172.8 31.33 172.46L31.33 172.46Q31.42 172.38 31.58 172.38Q31.67 172.38 31.75 172.54L31.75 172.54Q31.92 172.88 32 173.38Q32.17 173.89 32.34 174.39L32.34 174.39Q34.36 180.78 36.54 187.41Q38.72 194.05 40.82 200.18Q42.84 206.4 44.6 211.27Q46.28 216.22 47.29 219.25L47.29 219.25Q48.47 222.61 49.81 224.29Q51.16 225.97 52.67 226.64Q54.1 227.31 55.78 227.65L55.78 227.65Q57.2 227.9 57.88 228.4Q58.55 228.99 58.55 229.58L58.55 229.58Q58.55 230.08 57.88 230.25Q57.2 230.42 56.11 230.42L56.11 230.42Q54.94 230.42 52.92 230.34Q50.9 230.17 48.64 230.08Q46.37 229.92 44.44 229.92L44.44 229.92Q42.84 229.92 41.16 229.92Q39.48 229.92 38.05 229.92Q36.62 230 35.62 230L35.62 230Q34.52 230 33.85 229.75Q33.18 229.5 33.18 228.99L33.18 228.99Q33.18 228.4 34.02 227.98Q34.86 227.56 35.95 227.4L35.95 227.4Q38.72 226.98 39.9 225.97Q41.08 224.96 41.08 223.62L41.08 223.62Q41.08 222.36 40.57 219.92Q39.98 217.57 39.23 214.8Q38.47 212.11 37.8 210.01L37.8 210.01Q37.63 209.34 37.21 209.17Q36.71 209.08 35.53 209.08L35.53 209.08L19.66 209.08Q19.32 209.08 18.98 209.34Q18.56 209.67 18.23 210.6L18.23 210.6Q17.98 211.44 17.39 213.2Q16.8 215.05 16.21 217.06Q15.62 219.08 15.2 220.68Q14.78 222.27 14.78 222.69L14.78 222.69Q14.78 224.54 16.21 225.72Q17.64 226.98 19.66 227.48L19.66 227.48Q22.43 228.24 22.43 229.16L22.43 229.16Q22.43 229.66 21.76 229.83Q21.08 230.08 19.99 230.08L19.99 230.08Q18.9 230.08 16.8 230Q14.7 229.92 12.35 229.92L12.35 229.92Q9.58 229.92 6.97 230.17Q4.37 230.42 2.27 230.42ZM21.92 206.31L21.92 206.31L34.94 206.31Q36.12 206.31 36.12 205.89L36.12 205.89Q36.12 205.72 36.12 205.47Q36.04 205.3 35.95 205.05L35.95 205.05L29.4 184.56Q28.9 183.04 28.64 183.04L28.64 183.04Q28.48 183.04 27.97 184.47L27.97 184.47L20.33 205.05Q20.16 205.56 20.16 205.72L20.16 205.72Q20.16 206.14 20.66 206.23Q21.08 206.31 21.92 206.31Z M76.67 230.42L76.67 230.42Q75.58 230.42 74.91 230.25Q74.24 230 74.24 229.5L74.24 229.5Q74.24 228.49 77.01 227.98L77.01 227.98Q80.2 227.4 81.71 226.05Q83.22 224.71 83.22 221.68L83.22 221.68L83.22 183.88Q83.22 180.86 82.05 179.6Q80.79 178.34 77.6 177.75L77.6 177.75Q76.17 177.5 75.5 177.08Q74.82 176.66 74.82 176.07L74.82 176.07Q74.82 175.57 75.5 175.4Q76.17 175.15 77.26 175.15L77.26 175.15Q80.45 175.15 82.72 175.23Q84.9 175.32 87 175.4Q89.19 175.4 92.13 175.4L92.13 175.4Q94.9 175.4 98.01 175.4Q101.03 175.32 103.64 175.32L103.64 175.32Q106.49 175.23 108.51 175.15Q110.44 175.15 110.78 175.15L110.78 175.15Q111.2 175.15 111.7 175.32Q112.2 175.48 112.29 175.9L112.29 175.9Q112.71 178.26 113.13 180.52Q113.55 182.88 113.55 184.56L113.55 184.56Q113.55 185.31 113.21 185.56Q112.79 185.82 112.37 185.82L112.37 185.82Q111.95 185.82 111.78 185.56Q111.62 185.4 111.45 184.98L111.45 184.98Q111.03 183.55 110.61 182.2Q110.19 180.94 109.6 180.36L109.6 180.36Q108.42 179.01 107 178.51Q105.57 178.09 103.97 178.09L103.97 178.09L92.97 178.09Q92.3 178.09 91.12 178.84Q89.94 179.6 89.94 180.78L89.94 180.78L89.94 198.58Q89.94 199.34 90.45 199.84Q90.87 200.43 91.46 200.43L91.46 200.43L99.77 200.43Q102.21 200.43 103.13 199.51Q104.06 198.67 104.64 196.32L104.64 196.32Q105.15 194.47 106.16 194.47L106.16 194.47Q106.49 194.47 106.91 194.8Q107.25 195.14 107.25 195.81L107.25 195.81Q107.25 196.15 107.25 197.32Q107.16 198.5 107.08 199.76Q107 201.02 107 201.69L107 201.69Q107 202.53 107.08 203.88Q107.08 205.3 107.16 206.56Q107.16 207.82 107.16 208.16L107.16 208.16Q107.16 208.75 107.08 209.17Q106.91 209.59 106.41 209.59L106.41 209.59Q105.15 209.59 104.48 206.9L104.48 206.9Q103.97 204.97 103.13 204.04Q102.29 203.12 100.61 203.12L100.61 203.12L92.8 203.12Q91.37 203.12 90.7 203.46Q89.94 203.88 89.94 205.3L89.94 205.3L89.94 221.43Q89.94 224.62 91.29 225.8Q92.63 227.06 95.49 227.06L95.49 227.06L101.7 227.06Q104.39 227.06 106.24 226.72Q108 226.47 109.35 225.63L109.35 225.63Q110.69 224.71 111.78 223.2Q112.79 221.68 114.14 219.16L114.14 219.16Q114.39 218.66 114.72 218.32Q115.06 217.99 115.48 218.07L115.48 218.07Q115.9 218.16 116.15 218.41Q116.4 218.74 116.4 219.25L116.4 219.25Q116.4 220 115.98 221.85Q115.56 223.78 114.98 225.8Q114.3 227.82 113.8 228.99L113.8 228.99Q113.55 229.58 113.38 230Q113.13 230.42 112.62 230.42L112.62 230.42Q108.59 230.42 105.15 230.34Q101.7 230.25 98.6 230.17Q95.49 230.08 92.55 230Q89.52 229.92 86.33 229.92L86.33 229.92Q84.48 229.92 83.14 230.08Q81.8 230.17 80.37 230.34Q78.94 230.42 76.67 230.42Z M158.22 231.01L158.22 231.01Q157.54 231.01 157.29 230.42L157.29 230.42Q156.96 229.5 156.45 227.9Q155.95 226.39 155.53 225.3L155.53 225.3L140.16 184.05Q139.32 181.7 137.89 180.1Q136.46 178.51 134.28 177.92L134.28 177.92Q132.93 177.5 132.26 177.08Q131.5 176.66 131.5 176.07L131.5 176.07Q131.5 175.57 132.18 175.4Q132.85 175.15 133.94 175.15L133.94 175.15Q135.28 175.15 136.96 175.23Q138.56 175.32 140.41 175.4Q142.26 175.4 144.19 175.4L144.19 175.4Q145.87 175.4 147.55 175.4Q149.14 175.32 150.57 175.23Q151.92 175.23 152.76 175.23L152.76 175.23Q153.85 175.23 154.52 175.4Q155.19 175.65 155.19 176.16L155.19 176.16Q155.19 176.74 154.52 177.16Q153.85 177.67 152.42 177.84L152.42 177.84Q150.07 178.09 148.56 178.84Q146.96 179.68 146.96 181.11L146.96 181.11Q146.96 182.54 147.38 183.55Q147.72 184.64 147.88 185.23L147.88 185.23L159.98 217.15Q160.15 217.48 160.4 217.57Q160.65 217.65 160.9 217.06L160.9 217.06L172.41 186.82Q174.09 182.37 172.66 180.27Q171.15 178.26 168.46 177.92L168.46 177.92Q167.2 177.75 166.45 177.25Q165.69 176.83 165.69 176.24L165.69 176.24Q165.69 175.74 166.36 175.48Q167.04 175.32 168.13 175.32L168.13 175.32Q169.22 175.32 170.56 175.32Q171.91 175.32 173.42 175.4Q174.85 175.4 176.44 175.4L176.44 175.4Q178.88 175.4 181.65 175.23Q184.42 175.15 186.02 175.15L186.02 175.15Q187.11 175.15 187.78 175.4Q188.46 175.57 188.46 176.07L188.46 176.07Q188.46 176.66 187.78 177Q187.11 177.42 185.68 177.75L185.68 177.75Q182.58 178.42 180.48 180.61Q178.38 182.79 177.45 185.06L177.45 185.06L161.66 223.36Q161.49 223.78 160.99 225.04Q160.57 226.39 160.06 227.9Q159.56 229.41 159.06 230.42L159.06 230.42Q158.97 230.67 158.72 230.84Q158.47 231.01 158.22 231.01Z M204.98 230.42L204.98 230.42Q203.89 230.42 203.22 230.25Q202.55 230 202.55 229.5L202.55 229.5Q202.55 228.49 205.32 227.98L205.32 227.98Q208.51 227.4 210.19 226.05Q211.87 224.71 211.87 221.77L211.87 221.77L211.87 183.8Q211.87 180.86 210.7 179.6Q209.44 178.34 206.24 177.75L206.24 177.75Q203.47 177.25 203.47 176.07L203.47 176.07Q203.47 175.57 204.14 175.4Q204.82 175.15 205.91 175.15L205.91 175.15Q208.18 175.15 209.69 175.23Q211.12 175.32 212.46 175.4Q213.8 175.4 215.74 175.4L215.74 175.4Q217.58 175.4 218.76 175.4Q219.94 175.32 221.28 175.23Q222.62 175.15 224.89 175.15L224.89 175.15Q225.98 175.15 226.66 175.4Q227.33 175.57 227.33 176.07L227.33 176.07Q227.33 176.66 226.66 177.08Q225.98 177.5 224.56 177.75L224.56 177.75Q221.45 178.34 220.02 179.6Q218.59 180.86 218.59 183.8L218.59 183.8L218.59 221.77Q218.59 224.71 220.36 226.05Q222.12 227.4 225.23 227.98L225.23 227.98Q226.66 228.24 227.33 228.57Q228 228.91 228 229.5L228 229.5Q228 230 227.33 230.25Q226.66 230.42 225.56 230.42L225.56 230.42Q223.3 230.42 221.87 230.34Q220.36 230.17 219.01 230.08Q217.67 230 215.74 230L215.74 230Q213.64 230 212.12 230.08Q210.53 230.17 208.93 230.34Q207.25 230.42 204.98 230.42Z M260.49 230.42L260.49 230.42Q259.4 230.42 258.72 230.25Q258.05 230 258.05 229.5L258.05 229.5Q258.05 228.91 258.72 228.57Q259.4 228.24 260.82 227.98L260.82 227.98Q264.02 227.4 265.7 225.88Q267.38 224.46 267.38 221.43L267.38 221.43L267.38 188.84Q267.38 184.98 267.21 182.88Q267.04 180.86 266.7 180.02Q266.28 179.18 265.61 179.1L265.61 179.1Q264.44 178.84 263.18 178.76Q261.83 178.76 259.65 178.76L259.65 178.76L255.7 178.76Q253.68 178.76 251.75 179.52Q249.74 180.36 248.81 182.04L248.81 182.04Q248.56 182.46 247.97 183.21Q247.38 184.05 246.71 184.64Q246.04 185.23 245.37 185.23L245.37 185.23Q245.03 185.23 244.95 184.89Q244.78 184.56 244.78 184.14L244.78 184.14Q244.78 183.3 245.2 182.46L245.2 182.46Q246.38 180.02 246.96 178.09Q247.47 176.24 247.8 173.64L247.8 173.64Q247.97 172.21 248.48 171.96Q248.9 171.7 249.23 171.7L249.23 171.7Q249.57 171.7 250.32 172.71Q251 173.72 251.33 174.39L251.33 174.39Q251.84 175.23 253.68 175.65Q255.45 176.07 257.21 176.07L257.21 176.07L286.78 176.07Q289.72 176.07 291.57 175.74Q293.42 175.4 294.76 174.81L294.76 174.81Q295.77 174.31 296.44 173.72Q297.03 173.13 298.04 173.13L298.04 173.13Q298.29 173.13 298.46 173.72Q298.62 174.39 298.62 175.06L298.62 175.06Q298.62 175.48 298.54 176.24Q298.37 177 298.29 177.42L298.29 177.42Q298.04 178.93 297.87 179.6Q297.62 180.27 297.53 180.78Q297.45 181.28 297.45 182.37L297.45 182.37L297.45 183.38Q297.45 184.14 297.11 185.06Q296.78 186.07 296.1 186.07L296.1 186.07Q295.52 186.07 295.18 185.14Q294.84 184.22 294.51 182.62L294.51 182.62Q294.17 180.86 292.49 179.77Q290.81 178.76 286.78 178.76L286.78 178.76L278.3 178.76Q276.45 178.76 275.52 179.26Q274.6 179.77 274.35 181.78Q274.1 183.8 274.1 188.42L274.1 188.42L274.1 221.43Q274.1 224.46 275.86 225.88Q277.62 227.4 280.73 227.98L280.73 227.98Q282.16 228.24 282.83 228.57Q283.5 228.91 283.5 229.5L283.5 229.5Q283.5 230 282.83 230.25Q282.16 230.42 281.07 230.42L281.07 230.42Q278.8 230.42 277.37 230.34Q275.86 230.17 274.52 230.08Q273.17 230 271.24 230L271.24 230Q269.14 230 267.63 230.08Q266.03 230.17 264.44 230.34Q262.76 230.42 260.49 230.42Z M317.34 230.42L317.34 230.42Q316.24 230.42 315.57 230.25Q314.9 230 314.9 229.5L314.9 229.5Q314.9 228.49 317.67 227.98L317.67 227.98Q320.86 227.4 322.38 226.05Q323.89 224.71 323.89 221.68L323.89 221.68L323.89 183.88Q323.89 180.86 322.71 179.6Q321.45 178.34 318.26 177.75L318.26 177.75Q316.83 177.5 316.16 177.08Q315.49 176.66 315.49 176.07L315.49 176.07Q315.49 175.57 316.16 175.4Q316.83 175.15 317.92 175.15L317.92 175.15Q321.12 175.15 323.38 175.23Q325.57 175.32 327.67 175.4Q329.85 175.4 332.79 175.4L332.79 175.4Q335.56 175.4 338.67 175.4Q341.7 175.32 344.3 175.32L344.3 175.32Q347.16 175.23 349.17 175.15Q351.1 175.15 351.44 175.15L351.44 175.15Q351.86 175.15 352.36 175.32Q352.87 175.48 352.95 175.9L352.95 175.9Q353.37 178.26 353.79 180.52Q354.21 182.88 354.21 184.56L354.21 184.56Q354.21 185.31 353.88 185.56Q353.46 185.82 353.04 185.82L353.04 185.82Q352.62 185.82 352.45 185.56Q352.28 185.4 352.11 184.98L352.11 184.98Q351.69 183.55 351.27 182.2Q350.85 180.94 350.26 180.36L350.26 180.36Q349.09 179.01 347.66 178.51Q346.23 178.09 344.64 178.09L344.64 178.09L333.63 178.09Q332.96 178.09 331.78 178.84Q330.61 179.6 330.61 180.78L330.61 180.78L330.61 198.58Q330.61 199.34 331.11 199.84Q331.53 200.43 332.12 200.43L332.12 200.43L340.44 200.43Q342.87 200.43 343.8 199.51Q344.72 198.67 345.31 196.32L345.31 196.32Q345.81 194.47 346.82 194.47L346.82 194.47Q347.16 194.47 347.58 194.8Q347.91 195.14 347.91 195.81L347.91 195.81Q347.91 196.15 347.91 197.32Q347.83 198.5 347.74 199.76Q347.66 201.02 347.66 201.69L347.66 201.69Q347.66 202.53 347.74 203.88Q347.74 205.3 347.83 206.56Q347.83 207.82 347.83 208.16L347.83 208.16Q347.83 208.75 347.74 209.17Q347.58 209.59 347.07 209.59L347.07 209.59Q345.81 209.59 345.14 206.9L345.14 206.9Q344.64 204.97 343.8 204.04Q342.96 203.12 341.28 203.12L341.28 203.12L333.46 203.12Q332.04 203.12 331.36 203.46Q330.61 203.88 330.61 205.3L330.61 205.3L330.61 221.43Q330.61 224.62 331.95 225.8Q333.3 227.06 336.15 227.06L336.15 227.06L342.37 227.06Q345.06 227.06 346.9 226.72Q348.67 226.47 350.01 225.63L350.01 225.63Q351.36 224.71 352.45 223.2Q353.46 221.68 354.8 219.16L354.8 219.16Q355.05 218.66 355.39 218.32Q355.72 217.99 356.14 218.07L356.14 218.07Q356.56 218.16 356.82 218.41Q357.07 218.74 357.07 219.25L357.07 219.25Q357.07 220 356.65 221.85Q356.23 223.78 355.64 225.8Q354.97 227.82 354.46 228.99L354.46 228.99Q354.21 229.58 354.04 230Q353.79 230.42 353.29 230.42L353.29 230.42Q349.26 230.42 345.81 230.34Q342.37 230.25 339.26 230.17Q336.15 230.08 333.21 230Q330.19 229.92 327 229.92L327 229.92Q325.15 229.92 323.8 230.08Q322.46 230.17 321.03 230.34Q319.6 230.42 317.34 230.42Z M425.68 231.76L425.68 231.76Q423.32 231.76 421.22 231.43Q419.12 231.01 417.36 230Q415.6 228.99 414.08 227.23L414.08 227.23Q412.07 224.71 410.22 222.36Q408.37 220.09 406.36 217.06Q404.26 214.04 401.32 209.34L401.32 209.34Q400.06 207.24 397.7 206.06L397.7 206.06Q395.86 205.14 394.09 204.72Q392.24 204.38 391.07 204.3L391.07 204.3Q390.4 204.21 390.14 204.72Q389.81 205.22 389.81 205.98L389.81 205.98L389.81 220.76Q389.81 223.45 391.07 225.38Q392.33 227.4 395.44 227.98L395.44 227.98Q396.86 228.24 397.54 228.57Q398.21 228.91 398.21 229.5L398.21 229.5Q398.21 230 397.54 230.25Q396.86 230.42 395.77 230.42L395.77 230.42Q393.5 230.42 392.33 230.25Q391.07 230.08 390.14 229.92Q389.14 229.83 387.54 229.83L387.54 229.83Q385.44 229.83 383.84 229.92Q382.16 230.08 380.57 230.25Q378.89 230.42 376.62 230.42L376.62 230.42Q375.53 230.42 374.86 230.25Q374.18 230 374.18 229.5L374.18 229.5Q374.18 228.49 376.96 227.98L376.96 227.98Q380.15 227.4 381.66 226.05Q383.09 224.71 383.09 221.6L383.09 221.6L383.09 185.82Q383.09 182.62 382.84 180.94Q382.5 179.35 381.49 178.68Q380.4 178 377.96 177.75L377.96 177.75Q376.54 177.58 375.86 177.08Q375.19 176.66 375.19 176.07L375.19 176.07Q375.19 175.57 375.86 175.4Q376.54 175.15 377.63 175.15L377.63 175.15Q379.9 175.15 381.07 175.15Q382.16 175.15 383.17 175.15Q384.18 175.23 385.86 175.23L385.86 175.23Q387.46 175.23 388.72 175.06Q389.98 174.98 391.57 174.9Q393.08 174.81 395.52 174.81L395.52 174.81Q404.76 174.81 409.63 178.26Q414.42 181.7 414.42 188.59L414.42 188.59Q414.42 192.37 412.91 195.06Q411.4 197.83 409.13 199.68Q406.86 201.52 404.51 202.7L404.51 202.7Q404.17 202.78 404.17 203.04Q404.26 203.37 404.51 203.79L404.51 203.79Q407.11 207.74 409.55 211.27Q411.9 214.8 414.76 218.16Q417.61 221.52 421.56 225.13L421.56 225.13Q423.74 227.06 426.01 227.48Q428.28 227.9 431.22 227.9L431.22 227.9Q432.48 227.9 432.48 228.82L432.48 228.82Q432.48 230.08 431.22 230.76Q429.96 231.34 428.36 231.6Q426.77 231.76 425.68 231.76ZM394.26 202.36L394.26 202.36Q398.12 202.36 400.98 200.6Q403.75 198.84 405.35 195.98Q406.86 193.12 406.86 189.93L406.86 189.93Q406.86 186.49 406.02 183.63Q405.1 180.78 402.49 179.01Q399.8 177.33 394.51 177.33L394.51 177.33Q391.82 177.33 390.98 179.01Q390.14 180.78 389.98 185.14L389.98 185.14Q389.89 187.24 389.89 190.77Q389.81 194.38 389.81 199.42L389.81 199.42Q389.81 201.52 390.98 201.94Q392.16 202.36 394.26 202.36Z M501.17 231.43L501.17 231.43Q500.42 231.43 498.23 230.17Q495.96 228.91 493.95 226.14L493.95 226.14Q493.61 225.72 491.93 223.62Q490.17 221.52 487.56 218.32Q484.88 215.22 481.77 211.52Q478.66 207.82 475.55 204.13Q472.44 200.43 469.76 197.24Q467.07 194.13 465.3 191.95Q463.46 189.85 463.04 189.34L463.04 189.34Q462.45 188.59 462.03 188.25Q461.61 188 461.27 188L461.27 188Q460.85 188 460.68 188.59Q460.52 189.26 460.52 189.76L460.52 189.76Q460.43 193.88 460.35 199.26Q460.26 204.63 460.18 210.34Q460.1 216.06 460.1 221.26L460.1 221.26Q460.1 223.53 461.27 225.46Q462.36 227.4 465.47 227.98L465.47 227.98Q466.9 228.24 467.57 228.57Q468.24 228.91 468.24 229.5L468.24 229.5Q468.24 230 467.57 230.25Q466.9 230.42 465.81 230.42L465.81 230.42Q463.54 230.42 462.45 230.34Q461.27 230.17 460.43 230.08Q459.51 230 457.91 230L457.91 230Q456.4 230 455.56 230.08Q454.72 230.17 453.63 230.34Q452.54 230.42 450.27 230.42L450.27 230.42Q449.18 230.42 448.5 230.25Q447.83 230 447.83 229.5L447.83 229.5Q447.83 228.91 448.5 228.57Q449.18 228.24 450.6 227.9L450.6 227.9Q453.04 227.23 454.13 225.38Q455.22 223.62 455.48 221.01L455.48 221.01Q455.81 217.82 456.15 212.53Q456.48 207.32 456.74 200.77Q456.99 194.3 456.99 187.41L456.99 187.41Q456.99 182.96 454.72 181.03Q452.37 179.1 448.67 177.92L448.67 177.92Q448.34 177.75 447.24 177.16Q446.07 176.66 446.07 175.9L446.07 175.9Q446.07 175.15 446.82 174.98Q447.58 174.73 448 174.73L448 174.73Q450.44 174.81 451.95 174.81Q453.46 174.9 454.64 174.98Q455.81 175.06 457.24 175.06Q458.67 175.15 460.94 175.15L460.94 175.15Q461.69 175.15 462.11 175.57Q462.53 175.99 462.95 176.58L462.95 176.58Q463.29 177.08 465.22 179.35Q467.07 181.7 469.92 185.14Q472.7 188.67 476.06 192.7Q479.42 196.82 482.78 200.94Q486.14 204.97 488.99 208.41Q491.85 211.94 493.78 214.21Q495.63 216.48 495.96 216.9L495.96 216.9Q496.3 217.23 496.97 217.9Q497.56 218.58 498.06 218.58L498.06 218.58Q498.82 218.58 498.9 216.81L498.9 216.81Q498.9 215.64 498.99 212.28Q498.99 209 499.07 204.21Q499.07 199.51 499.07 193.96Q499.07 188.42 499.07 182.62L499.07 182.62Q498.99 180.94 497.31 179.6Q495.63 178.26 494.2 178L494.2 178Q492.77 177.75 491.6 177.33Q490.42 176.91 490.42 176.32L490.42 176.32Q490.42 175.82 491.6 175.57Q492.77 175.4 493.86 175.4L493.86 175.4Q494.7 175.4 495.54 175.4Q496.3 175.4 497.14 175.4Q497.9 175.4 498.65 175.4L498.65 175.4Q500.67 175.4 501.84 175.4Q503.02 175.32 504.45 175.23Q505.79 175.15 508.31 175.15L508.31 175.15Q509.4 175.15 510.08 175.4Q510.75 175.57 510.75 176.07L510.75 176.07Q510.75 177.25 507.98 177.75L507.98 177.75Q504.87 178.34 503.86 179.26Q502.85 180.19 502.68 182.29L502.68 182.29Q502.68 182.71 502.6 185.56Q502.6 188.42 502.6 192.79Q502.6 197.16 502.6 202.2Q502.52 207.24 502.52 212.19Q502.52 217.23 502.52 221.18L502.52 221.18Q502.52 223.2 502.6 224.79Q502.77 226.47 502.85 227.56Q502.94 228.74 502.94 229.33L502.94 229.33Q502.94 230.67 502.43 231.09Q501.84 231.43 501.17 231.43Z M528.62 230.42L528.62 230.42Q527.53 230.42 526.86 230.25Q526.18 230 526.18 229.5L526.18 229.5Q526.18 228.49 528.96 227.98L528.96 227.98Q532.15 227.4 533.83 226.05Q535.51 224.71 535.51 221.77L535.51 221.77L535.51 183.8Q535.51 180.86 534.33 179.6Q533.07 178.34 529.88 177.75L529.88 177.75Q527.11 177.25 527.11 176.07L527.11 176.07Q527.11 175.57 527.78 175.4Q528.45 175.15 529.54 175.15L529.54 175.15Q531.81 175.15 533.32 175.23Q534.75 175.32 536.1 175.4Q537.44 175.4 539.37 175.4L539.37 175.4Q541.22 175.4 542.4 175.4Q543.57 175.32 544.92 175.23Q546.26 175.15 548.53 175.15L548.53 175.15Q549.62 175.15 550.29 175.4Q550.96 175.57 550.96 176.07L550.96 176.07Q550.96 176.66 550.29 177.08Q549.62 177.5 548.19 177.75L548.19 177.75Q545.08 178.34 543.66 179.6Q542.23 180.86 542.23 183.8L542.23 183.8L542.23 221.77Q542.23 224.71 543.99 226.05Q545.76 227.4 548.86 227.98L548.86 227.98Q550.29 228.24 550.96 228.57Q551.64 228.91 551.64 229.5L551.64 229.5Q551.64 230 550.96 230.25Q550.29 230.42 549.2 230.42L549.2 230.42Q546.93 230.42 545.5 230.34Q543.99 230.17 542.65 230.08Q541.3 230 539.37 230L539.37 230Q537.27 230 535.76 230.08Q534.16 230.17 532.57 230.34Q530.89 230.42 528.62 230.42Z M584.12 230.42L584.12 230.42Q583.03 230.42 582.36 230.25Q581.69 230 581.69 229.5L581.69 229.5Q581.69 228.91 582.36 228.57Q583.03 228.24 584.46 227.98L584.46 227.98Q587.65 227.4 589.33 225.88Q591.01 224.46 591.01 221.43L591.01 221.43L591.01 188.84Q591.01 184.98 590.84 182.88Q590.68 180.86 590.34 180.02Q589.92 179.18 589.25 179.1L589.25 179.1Q588.07 178.84 586.81 178.76Q585.47 178.76 583.28 178.76L583.28 178.76L579.34 178.76Q577.32 178.76 575.39 179.52Q573.37 180.36 572.45 182.04L572.45 182.04Q572.2 182.46 571.61 183.21Q571.02 184.05 570.35 184.64Q569.68 185.23 569 185.23L569 185.23Q568.67 185.23 568.58 184.89Q568.42 184.56 568.42 184.14L568.42 184.14Q568.42 183.3 568.84 182.46L568.84 182.46Q570.01 180.02 570.6 178.09Q571.1 176.24 571.44 173.64L571.44 173.64Q571.61 172.21 572.11 171.96Q572.53 171.7 572.87 171.7L572.87 171.7Q573.2 171.7 573.96 172.71Q574.63 173.72 574.97 174.39L574.97 174.39Q575.47 175.23 577.32 175.65Q579.08 176.07 580.85 176.07L580.85 176.07L610.42 176.07Q613.36 176.07 615.2 175.74Q617.05 175.4 618.4 174.81L618.4 174.81Q619.4 174.31 620.08 173.72Q620.66 173.13 621.67 173.13L621.67 173.13Q621.92 173.13 622.09 173.72Q622.26 174.39 622.26 175.06L622.26 175.06Q622.26 175.48 622.18 176.24Q622.01 177 621.92 177.42L621.92 177.42Q621.67 178.93 621.5 179.6Q621.25 180.27 621.17 180.78Q621.08 181.28 621.08 182.37L621.08 182.37L621.08 183.38Q621.08 184.14 620.75 185.06Q620.41 186.07 619.74 186.07L619.74 186.07Q619.15 186.07 618.82 185.14Q618.48 184.22 618.14 182.62L618.14 182.62Q617.81 180.86 616.13 179.77Q614.45 178.76 610.42 178.76L610.42 178.76L601.93 178.76Q600.08 178.76 599.16 179.26Q598.24 179.77 597.98 181.78Q597.73 183.8 597.73 188.42L597.73 188.42L597.73 221.43Q597.73 224.46 599.5 225.88Q601.26 227.4 604.37 227.98L604.37 227.98Q605.8 228.24 606.47 228.57Q607.14 228.91 607.14 229.5L607.14 229.5Q607.14 230 606.47 230.25Q605.8 230.42 604.7 230.42L604.7 230.42Q602.44 230.42 601.01 230.34Q599.5 230.17 598.15 230.08Q596.81 230 594.88 230L594.88 230Q592.78 230 591.26 230.08Q589.67 230.17 588.07 230.34Q586.39 230.42 584.12 230.42Z M637.7 230.42L637.7 230.42Q636.6 230.42 635.93 230.17Q635.26 229.83 635.26 229.33L635.26 229.33Q635.26 228.74 636.02 228.24Q636.69 227.82 638.03 227.4L638.03 227.4Q640.22 226.72 642.06 225.38Q643.91 224.04 645.26 220.93L645.26 220.93Q647.61 215.55 649.62 210.85Q651.56 206.14 653.32 201.61Q655.08 197.07 657.02 192.12Q658.86 187.24 660.96 181.45L660.96 181.45Q661.38 180.27 661.72 179.1Q662.06 177.92 662.14 176.58L662.14 176.58Q662.9 176.32 663.65 176.07Q664.41 175.82 665.16 175.32L665.16 175.32Q665.92 174.81 666.17 173.8Q666.51 172.8 666.76 172.46L666.76 172.46Q666.84 172.38 667.01 172.38Q667.1 172.38 667.18 172.54L667.18 172.54Q667.35 172.88 667.43 173.38Q667.6 173.89 667.77 174.39L667.77 174.39Q669.78 180.78 671.97 187.41Q674.15 194.05 676.25 200.18Q678.27 206.4 680.03 211.27Q681.71 216.22 682.72 219.25L682.72 219.25Q683.9 222.61 685.24 224.29Q686.58 225.97 688.1 226.64Q689.52 227.31 691.2 227.65L691.2 227.65Q692.63 227.9 693.3 228.4Q693.98 228.99 693.98 229.58L693.98 229.58Q693.98 230.08 693.3 230.25Q692.63 230.42 691.54 230.42L691.54 230.42Q690.36 230.42 688.35 230.34Q686.33 230.17 684.06 230.08Q681.8 229.92 679.86 229.92L679.86 229.92Q678.27 229.92 676.59 229.92Q674.91 229.92 673.48 229.92Q672.05 230 671.04 230L671.04 230Q669.95 230 669.28 229.75Q668.61 229.5 668.61 228.99L668.61 228.99Q668.61 228.4 669.45 227.98Q670.29 227.56 671.38 227.4L671.38 227.4Q674.15 226.98 675.33 225.97Q676.5 224.96 676.5 223.62L676.5 223.62Q676.5 222.36 676 219.92Q675.41 217.57 674.66 214.8Q673.9 212.11 673.23 210.01L673.23 210.01Q673.06 209.34 672.64 209.17Q672.14 209.08 670.96 209.08L670.96 209.08L655.08 209.08Q654.75 209.08 654.41 209.34Q653.99 209.67 653.66 210.6L653.66 210.6Q653.4 211.44 652.82 213.2Q652.23 215.05 651.64 217.06Q651.05 219.08 650.63 220.68Q650.21 222.27 650.21 222.69L650.21 222.69Q650.21 224.54 651.64 225.72Q653.07 226.98 655.08 227.48L655.08 227.48Q657.86 228.24 657.86 229.16L657.86 229.16Q657.86 229.66 657.18 229.83Q656.51 230.08 655.42 230.08L655.42 230.08Q654.33 230.08 652.23 230Q650.13 229.92 647.78 229.92L647.78 229.92Q645 229.92 642.4 230.17Q639.8 230.42 637.7 230.42ZM657.35 206.31L657.35 206.31L670.37 206.31Q671.55 206.31 671.55 205.89L671.55 205.89Q671.55 205.72 671.55 205.47Q671.46 205.3 671.38 205.05L671.38 205.05L664.83 184.56Q664.32 183.04 664.07 183.04L664.07 183.04Q663.9 183.04 663.4 184.47L663.4 184.47L655.76 205.05Q655.59 205.56 655.59 205.72L655.59 205.72Q655.59 206.14 656.09 206.23Q656.51 206.31 657.35 206.31Z M723.69 231.34L723.69 231.34Q720.16 231.34 717.22 230.34Q714.2 229.24 711.85 227.31L711.85 227.31Q711.51 226.98 711.26 226.56Q710.92 226.14 710.76 225.63L710.76 225.63Q710.34 223.95 710.25 221.26Q710.08 218.58 709.92 216.81L709.92 216.81Q709.92 216.22 710.42 215.89Q710.92 215.64 711.6 215.64L711.6 215.64Q712.02 215.64 712.44 215.8Q712.86 216.06 712.94 216.56L712.94 216.56Q714.62 223.03 717.98 225.8Q721.26 228.57 724.87 228.57L724.87 228.57Q727.81 228.57 730.08 227.31Q732.34 226.05 733.69 223.7Q734.95 221.43 734.95 218.32L734.95 218.32Q734.95 214.88 733.86 212.7Q732.68 210.6 730.58 209Q728.48 207.4 725.46 205.56L725.46 205.56Q722.18 203.46 718.99 201.36Q715.8 199.17 713.7 196.32Q711.6 193.54 711.6 189.51L711.6 189.51Q711.6 185.23 713.53 181.78Q715.46 178.34 719.41 176.24Q723.27 174.22 729.15 174.22L729.15 174.22Q732.18 174.22 734.36 174.81Q736.63 175.48 737.97 176.07L737.97 176.07Q738.64 176.32 739.15 176.91Q739.57 177.5 739.74 178.17L739.74 178.17Q740.24 179.94 740.83 182.2Q741.42 184.47 741.42 186.49L741.42 186.49Q741.42 187.41 740.16 187.41L740.16 187.41Q739.4 187.41 738.73 187.08Q737.97 186.74 737.8 186.24L737.8 186.24Q736.04 181.78 733.69 179.43Q731.34 177.08 727.72 177.08L727.72 177.08Q725.2 177.08 723.02 178Q720.84 178.93 719.49 181.03Q718.06 183.13 718.06 186.66L718.06 186.66Q718.06 189.18 719.74 191.19Q721.34 193.29 724.03 195.14Q726.72 196.99 729.82 198.92L729.82 198.92Q732.76 200.68 735.62 202.78Q738.39 204.88 740.24 207.74Q742 210.68 742 214.88L742 214.88Q742 219.84 739.74 223.53Q737.47 227.31 733.35 229.33Q729.24 231.34 723.69 231.34Z" fill="#201e1d"></path>
    <rect x="0" y="264" width="746" height="2" fill="#c08a3e"></rect>
  </g>
  <g id="divisa" transform="translate(268,296) scale(0.86)">
    <path d="M0,16 L11,0 L329,0 L340,16 L340,50 L329,66 L11,66 L0,50 Z" fill="#f5ead8" stroke="#c08a3e" stroke-width="3"></path>
    <path d="M45.76 52.44L45.76 52.44Q43.6 52.44 42.1 51.84Q40.57 51.21 39.13 50.19L39.13 50.19Q37.96 49.35 36.91 48.6Q35.86 47.82 34.39 46.62L34.39 46.62Q33.34 45.75 32.47 45.39Q31.57 45 30.94 44.7L30.94 44.7Q29.71 44.13 28.6 43.32Q27.49 42.51 26.65 41.4Q25.78 40.29 25.3 38.82Q24.79 37.38 24.79 35.55L24.79 35.55Q24.79 33.51 25.45 31.62Q26.11 29.76 27.4 28.29Q28.69 26.82 30.61 25.95Q32.53 25.08 35.02 25.08L35.02 25.08Q37 25.08 38.8 25.8Q40.6 26.49 41.98 27.78Q43.36 29.1 44.17 30.9Q44.98 32.73 44.98 34.95L44.98 34.95Q44.98 37.23 44.14 39.3Q43.33 41.37 41.71 42.9Q40.09 44.43 37.69 45.06L37.69 45.06Q37.45 45.12 37.45 45.27L37.45 45.27Q37.45 45.42 37.57 45.54L37.57 45.54Q38.44 46.47 39.37 47.28Q40.27 48.06 41.38 48.87L41.38 48.87Q42.88 49.95 44.2 50.37Q45.49 50.76 47.23 50.76L47.23 50.76Q47.77 50.76 48.25 50.7Q48.7 50.64 48.91 50.55L48.91 50.55Q49.06 50.49 49.21 50.46Q49.36 50.43 49.48 50.43L49.48 50.43Q49.81 50.43 49.81 50.67L49.81 50.67Q49.81 50.94 49.72 51.09Q49.6 51.24 49.27 51.45L49.27 51.45Q48.43 51.96 47.53 52.2Q46.6 52.44 45.76 52.44ZM35.2 44.22L35.2 44.22Q38.65 44.22 40.39 42.09Q42.1 39.96 42.1 36.42L42.1 36.42Q42.1 34.35 41.62 32.52Q41.14 30.69 40.21 29.28Q39.25 27.9 37.84 27.12Q36.42 26.34 34.54 26.34L34.54 26.34Q31.15 26.34 29.41 28.44Q27.67 30.54 27.67 34.05L27.67 34.05Q27.67 36.15 28.15 37.98Q28.6 39.81 29.56 41.22Q30.49 42.63 31.9 43.41Q33.31 44.22 35.2 44.22Z M65.87 45.36L65.87 45.36Q65.63 45.36 65.54 45.15L65.54 45.15Q65.42 44.82 65.24 44.25Q65.06 43.71 64.91 43.32L64.91 43.32L59.42 28.59Q59.12 27.75 58.61 27.18Q58.1 26.61 57.32 26.4L57.32 26.4Q56.84 26.25 56.6 26.1Q56.33 25.95 56.33 25.74L56.33 25.74Q56.33 25.56 56.57 25.5Q56.81 25.41 57.2 25.41L57.2 25.41Q57.68 25.41 58.28 25.44Q58.85 25.47 59.51 25.5Q60.17 25.5 60.86 25.5L60.86 25.5Q61.46 25.5 62.06 25.5Q62.63 25.47 63.14 25.44Q63.62 25.44 63.92 25.44L63.92 25.44Q64.31 25.44 64.55 25.5Q64.79 25.59 64.79 25.77L64.79 25.77Q64.79 25.98 64.55 26.13Q64.31 26.31 63.8 26.37L63.8 26.37Q62.96 26.46 62.42 26.73Q61.85 27.03 61.85 27.54L61.85 27.54Q61.85 28.05 62 28.41Q62.12 28.8 62.18 29.01L62.18 29.01L66.5 40.41Q66.56 40.53 66.65 40.56Q66.74 40.59 66.83 40.38L66.83 40.38L70.94 29.58Q71.54 27.99 71.03 27.24Q70.49 26.52 69.53 26.4L69.53 26.4Q69.08 26.34 68.81 26.16Q68.54 26.01 68.54 25.8L68.54 25.8Q68.54 25.62 68.78 25.53Q69.02 25.47 69.41 25.47L69.41 25.47Q69.8 25.47 70.28 25.47Q70.76 25.47 71.3 25.5Q71.81 25.5 72.38 25.5L72.38 25.5Q73.25 25.5 74.24 25.44Q75.22 25.41 75.8 25.41L75.8 25.41Q76.19 25.41 76.43 25.5Q76.67 25.56 76.67 25.74L76.67 25.74Q76.67 25.95 76.43 26.07Q76.19 26.22 75.68 26.34L75.68 26.34Q74.57 26.58 73.82 27.36Q73.07 28.14 72.74 28.95L72.74 28.95L67.1 42.63Q67.04 42.78 66.86 43.23Q66.71 43.71 66.53 44.25Q66.35 44.79 66.17 45.15L66.17 45.15Q66.14 45.24 66.05 45.3Q65.96 45.36 65.87 45.36Z M97.8 45.42L97.8 45.42Q95.82 45.42 94.02 44.7Q92.22 44.01 90.84 42.69Q89.46 41.4 88.65 39.57Q87.84 37.77 87.84 35.55L87.84 35.55Q87.84 33.51 88.5 31.62Q89.16 29.76 90.45 28.29Q91.74 26.82 93.66 25.95Q95.58 25.08 98.07 25.08L98.07 25.08Q100.05 25.08 101.85 25.8Q103.65 26.49 105.03 27.78Q106.41 29.1 107.22 30.9Q108.03 32.73 108.03 34.95L108.03 34.95Q108.03 36.96 107.37 38.85Q106.71 40.74 105.42 42.21Q104.13 43.68 102.21 44.55Q100.29 45.42 97.8 45.42ZM98.25 44.22L98.25 44.22Q100.56 44.22 102.09 43.23Q103.62 42.27 104.4 40.5Q105.15 38.76 105.15 36.42L105.15 36.42Q105.15 34.35 104.67 32.52Q104.19 30.69 103.26 29.28Q102.3 27.9 100.89 27.12Q99.48 26.34 97.59 26.34L97.59 26.34Q95.34 26.34 93.81 27.3Q92.28 28.26 91.5 29.97Q90.72 31.71 90.72 34.05L90.72 34.05Q90.72 36.15 91.2 37.98Q91.65 39.81 92.61 41.22Q93.54 42.63 94.95 43.41Q96.36 44.22 98.25 44.22Z M130.51 45.21L130.51 45.21Q130.21 45.21 129.16 45.15Q128.14 45.09 126.82 45.06Q125.47 45 124.27 45L124.27 45Q123.67 45 123.28 45.03Q122.86 45.06 122.41 45.12Q121.93 45.15 121.12 45.15L121.12 45.15Q120.73 45.15 120.49 45.06Q120.25 44.97 120.25 44.76L120.25 44.76Q120.25 44.52 120.49 44.43Q120.73 44.37 121.24 44.28L121.24 44.28Q122.38 44.07 122.83 43.59Q123.25 43.11 123.25 42.03L123.25 42.03L123.25 28.53Q123.25 27.45 122.83 27Q122.38 26.55 121.24 26.34L121.24 26.34Q120.73 26.25 120.49 26.13Q120.25 26.04 120.25 25.8L120.25 25.8Q120.25 25.59 120.49 25.5Q120.73 25.41 121.12 25.41L121.12 25.41Q121.9 25.41 122.38 25.41Q122.83 25.44 123.28 25.44Q123.73 25.47 124.45 25.47L124.45 25.47Q124.93 25.47 125.68 25.44Q126.4 25.41 127.21 25.35Q127.99 25.29 128.65 25.26Q129.28 25.23 129.57 25.23L129.57 25.23Q132.64 25.23 134.79 25.95Q136.95 26.7 138.31 27.99Q139.66 29.31 140.32 31.02Q140.95 32.76 140.95 34.74L140.95 34.74Q140.95 36.9 140.14 38.79Q139.32 40.68 137.89 42.12Q136.45 43.59 134.56 44.4Q132.67 45.21 130.51 45.21ZM130.15 44.16L130.15 44.16Q132.49 44.16 134.29 43.02Q136.09 41.88 137.1 39.87Q138.1 37.86 138.1 35.25L138.1 35.25Q138.1 33.09 137.38 31.38Q136.66 29.7 135.45 28.53Q134.26 27.39 132.76 26.76Q131.26 26.16 129.73 26.16L129.73 26.16Q128.44 26.16 127.54 26.22Q126.61 26.31 126.13 26.7Q125.65 27.09 125.65 27.99L125.65 27.99L125.65 41.37Q125.65 42.57 126.31 43.17Q126.97 43.77 128.01 43.95Q129.04 44.16 130.15 44.16Z M169.44 45.15L169.44 45.15Q169.05 45.15 168.81 45.09Q168.57 45 168.57 44.82L168.57 44.82Q168.57 44.61 168.81 44.49Q169.05 44.37 169.56 44.28L169.56 44.28Q170.31 44.13 170.79 43.56Q171.27 42.99 171.42 41.94L171.42 41.94Q171.78 39.24 172.05 36.78Q172.32 34.35 172.5 32.37Q172.65 30.42 172.65 29.16L172.65 29.16Q172.65 28.92 172.65 28.65Q172.65 28.38 172.62 28.17L172.62 28.17Q172.59 27.93 172.53 27.66Q172.47 27.42 172.17 27.18L172.17 27.18Q171.63 26.73 171.12 26.55Q170.61 26.4 169.92 26.28L169.92 26.28Q169.62 26.22 169.44 26.04Q169.26 25.89 169.26 25.68L169.26 25.68Q169.26 25.44 169.56 25.38Q169.83 25.35 170.28 25.35L170.28 25.35Q170.58 25.35 171.21 25.38Q171.81 25.41 172.53 25.47Q173.25 25.53 173.88 25.56Q174.48 25.59 174.78 25.59L174.78 25.59Q174.99 25.59 175.14 25.71Q175.29 25.83 175.35 26.07L175.35 26.07Q175.5 26.61 175.65 27.21Q175.8 27.81 176.01 28.38L176.01 28.38L180.75 40.41Q180.84 40.62 181.08 40.65Q181.32 40.71 181.44 40.5L181.44 40.5L187.35 28.2Q187.5 27.69 187.65 27.06Q187.8 26.43 187.89 25.95L187.89 25.95Q187.98 25.56 188.19 25.56L188.19 25.56L189.27 25.56Q190.17 25.56 191.19 25.44Q192.18 25.32 192.69 25.32L192.69 25.32Q192.84 25.32 193.08 25.35Q193.32 25.41 193.32 25.62L193.32 25.62Q193.32 25.83 193.17 25.95Q192.99 26.07 192.54 26.25L192.54 26.25Q192.15 26.4 191.67 26.58Q191.19 26.76 190.77 26.94L190.77 26.94Q190.47 27.06 190.26 27.33Q190.05 27.63 190.05 27.96L190.05 27.96Q190.05 30.06 190.14 31.89Q190.2 33.75 190.29 35.43Q190.38 37.14 190.5 38.79Q190.62 40.44 190.71 42.15L190.71 42.15Q190.77 43.08 191.31 43.56Q191.85 44.07 192.96 44.28L192.96 44.28Q193.47 44.37 193.71 44.49Q193.95 44.61 193.95 44.82L193.95 44.82Q193.95 45 193.71 45.09Q193.47 45.15 193.08 45.15L193.08 45.15Q192.27 45.15 191.76 45.12Q191.22 45.06 190.74 45.03Q190.26 45 189.57 45L189.57 45Q188.97 45 188.55 45.03Q188.16 45.06 187.71 45.12Q187.23 45.15 186.42 45.15L186.42 45.15Q186.03 45.15 185.79 45.09Q185.55 45 185.55 44.82L185.55 44.82Q185.55 44.61 185.79 44.46Q186.03 44.34 186.54 44.28L186.54 44.28Q187.41 44.16 187.74 43.65Q188.07 43.17 188.07 42.12L188.07 42.12Q188.07 39.96 188.04 38.22Q187.98 36.48 187.89 34.77Q187.8 33.09 187.71 31.08L187.71 31.08Q187.68 30.75 187.53 30.75Q187.38 30.78 187.23 31.08L187.23 31.08L180.33 45.15Q180.27 45.3 180.06 45.33Q179.85 45.33 179.79 45.12L179.79 45.12Q178.62 41.61 177.3 38.19Q175.95 34.8 174.27 30.87L174.27 30.87Q174.21 30.72 174.06 30.72Q173.91 30.72 173.88 30.87L173.88 30.87Q173.61 32.97 173.37 34.71Q173.16 36.48 173.04 38.19Q172.92 39.9 172.92 41.94L172.92 41.94Q172.92 42.75 173.43 43.41Q173.94 44.1 174.87 44.28L174.87 44.28Q175.38 44.37 175.62 44.49Q175.86 44.61 175.86 44.82L175.86 44.82Q175.86 45 175.62 45.09Q175.38 45.15 174.99 45.15L174.99 45.15Q174.18 45.15 173.79 45.12Q173.37 45.06 173.07 45.03Q172.74 45 172.17 45L172.17 45Q171.63 45 171.33 45.03Q171.03 45.06 170.64 45.12Q170.25 45.15 169.44 45.15Z M205.84 45.15L205.84 45.15Q205.45 45.15 205.21 45.06Q204.97 44.94 204.97 44.76L204.97 44.76Q204.97 44.55 205.24 44.37Q205.48 44.22 205.96 44.07L205.96 44.07Q206.74 43.83 207.4 43.35Q208.06 42.87 208.54 41.76L208.54 41.76Q209.38 39.84 210.1 38.16Q210.79 36.48 211.42 34.86Q212.05 33.24 212.74 31.47Q213.4 29.73 214.15 27.66L214.15 27.66Q214.3 27.24 214.42 26.82Q214.54 26.4 214.57 25.92L214.57 25.92Q214.84 25.83 215.11 25.74Q215.38 25.65 215.65 25.47L215.65 25.47Q215.92 25.29 216.01 24.93Q216.13 24.57 216.22 24.45L216.22 24.45Q216.25 24.42 216.31 24.42Q216.34 24.42 216.37 24.48L216.37 24.48Q216.43 24.6 216.46 24.78Q216.52 24.96 216.58 25.14L216.58 25.14Q217.3 27.42 218.08 29.79Q218.86 32.16 219.61 34.35Q220.33 36.57 220.96 38.31Q221.56 40.08 221.92 41.16L221.92 41.16Q222.34 42.36 222.82 42.96Q223.3 43.56 223.84 43.8Q224.35 44.04 224.95 44.16L224.95 44.16Q225.46 44.25 225.7 44.43Q225.94 44.64 225.94 44.85L225.94 44.85Q225.94 45.03 225.7 45.09Q225.46 45.15 225.07 45.15L225.07 45.15Q224.65 45.15 223.93 45.12Q223.21 45.06 222.4 45.03Q221.59 44.97 220.9 44.97L220.9 44.97Q220.33 44.97 219.73 44.97Q219.13 44.97 218.62 44.97Q218.11 45 217.75 45L217.75 45Q217.36 45 217.12 44.91Q216.88 44.82 216.88 44.64L216.88 44.64Q216.88 44.43 217.18 44.28Q217.48 44.13 217.87 44.07L217.87 44.07Q218.86 43.92 219.28 43.56Q219.7 43.2 219.7 42.72L219.7 42.72Q219.7 42.27 219.52 41.4Q219.31 40.56 219.04 39.57Q218.77 38.61 218.53 37.86L218.53 37.86Q218.47 37.62 218.32 37.56Q218.14 37.53 217.72 37.53L217.72 37.53L212.05 37.53Q211.93 37.53 211.81 37.62Q211.66 37.74 211.54 38.07L211.54 38.07Q211.45 38.37 211.24 39Q211.03 39.66 210.82 40.38Q210.61 41.1 210.46 41.67Q210.31 42.24 210.31 42.39L210.31 42.39Q210.31 43.05 210.82 43.47Q211.33 43.92 212.05 44.1L212.05 44.1Q213.04 44.37 213.04 44.7L213.04 44.7Q213.04 44.88 212.8 44.94Q212.56 45.03 212.17 45.03L212.17 45.03Q211.78 45.03 211.03 45Q210.28 44.97 209.44 44.97L209.44 44.97Q208.45 44.97 207.52 45.06Q206.59 45.15 205.84 45.15ZM212.86 36.54L212.86 36.54L217.51 36.54Q217.93 36.54 217.93 36.39L217.93 36.39Q217.93 36.33 217.93 36.24Q217.9 36.18 217.87 36.09L217.87 36.09L215.53 28.77Q215.35 28.23 215.26 28.23L215.26 28.23Q215.2 28.23 215.02 28.74L215.02 28.74L212.29 36.09Q212.23 36.27 212.23 36.33L212.23 36.33Q212.23 36.48 212.41 36.51Q212.56 36.54 212.86 36.54Z M255.83 45.51L255.83 45.51Q255.56 45.51 254.78 45.06Q253.97 44.61 253.25 43.62L253.25 43.62Q253.13 43.47 252.53 42.72Q251.9 41.97 250.97 40.83Q250.01 39.72 248.9 38.4Q247.79 37.08 246.68 35.76Q245.57 34.44 244.61 33.3Q243.65 32.19 243.02 31.41Q242.36 30.66 242.21 30.48L242.21 30.48Q242 30.21 241.85 30.09Q241.7 30 241.58 30L241.58 30Q241.43 30 241.37 30.21Q241.31 30.45 241.31 30.63L241.31 30.63Q241.28 32.1 241.25 34.02Q241.22 35.94 241.19 37.98Q241.16 40.02 241.16 41.88L241.16 41.88Q241.16 42.69 241.58 43.38Q241.97 44.07 243.08 44.28L243.08 44.28Q243.59 44.37 243.83 44.49Q244.07 44.61 244.07 44.82L244.07 44.82Q244.07 45 243.83 45.09Q243.59 45.15 243.2 45.15L243.2 45.15Q242.39 45.15 242 45.12Q241.58 45.06 241.28 45.03Q240.95 45 240.38 45L240.38 45Q239.84 45 239.54 45.03Q239.24 45.06 238.85 45.12Q238.46 45.15 237.65 45.15L237.65 45.15Q237.26 45.15 237.02 45.09Q236.78 45 236.78 44.82L236.78 44.82Q236.78 44.61 237.02 44.49Q237.26 44.37 237.77 44.25L237.77 44.25Q238.64 44.01 239.03 43.35Q239.42 42.72 239.51 41.79L239.51 41.79Q239.63 40.65 239.75 38.76Q239.87 36.9 239.96 34.56Q240.05 32.25 240.05 29.79L240.05 29.79Q240.05 28.2 239.24 27.51Q238.4 26.82 237.08 26.4L237.08 26.4Q236.96 26.34 236.57 26.13Q236.15 25.95 236.15 25.68L236.15 25.68Q236.15 25.41 236.42 25.35Q236.69 25.26 236.84 25.26L236.84 25.26Q237.71 25.29 238.25 25.29Q238.79 25.32 239.21 25.35Q239.63 25.38 240.14 25.38Q240.65 25.41 241.46 25.41L241.46 25.41Q241.73 25.41 241.88 25.56Q242.03 25.71 242.18 25.92L242.18 25.92Q242.3 26.1 242.99 26.91Q243.65 27.75 244.67 28.98Q245.66 30.24 246.86 31.68Q248.06 33.15 249.26 34.62Q250.46 36.06 251.48 37.29Q252.5 38.55 253.19 39.36Q253.85 40.17 253.97 40.32L253.97 40.32Q254.09 40.44 254.33 40.68Q254.54 40.92 254.72 40.92L254.72 40.92Q254.99 40.92 255.02 40.29L255.02 40.29Q255.02 39.87 255.05 38.67Q255.05 37.5 255.08 35.79Q255.08 34.11 255.08 32.13Q255.08 30.15 255.08 28.08L255.08 28.08Q255.05 27.48 254.45 27Q253.85 26.52 253.34 26.43L253.34 26.43Q252.83 26.34 252.41 26.19Q251.99 26.04 251.99 25.83L251.99 25.83Q251.99 25.65 252.41 25.56Q252.83 25.5 253.22 25.5L253.22 25.5Q253.52 25.5 253.82 25.5Q254.09 25.5 254.39 25.5Q254.66 25.5 254.93 25.5L254.93 25.5Q255.65 25.5 256.07 25.5Q256.49 25.47 257 25.44Q257.48 25.41 258.38 25.41L258.38 25.41Q258.77 25.41 259.01 25.5Q259.25 25.56 259.25 25.74L259.25 25.74Q259.25 26.16 258.26 26.34L258.26 26.34Q257.15 26.55 256.78 26.88Q256.43 27.21 256.37 27.96L256.37 27.96Q256.37 28.11 256.33 29.13Q256.33 30.15 256.33 31.71Q256.33 33.27 256.33 35.07Q256.31 36.87 256.31 38.64Q256.31 40.44 256.31 41.85L256.31 41.85Q256.31 42.57 256.33 43.14Q256.4 43.74 256.43 44.13Q256.46 44.55 256.46 44.76L256.46 44.76Q256.46 45.24 256.27 45.39Q256.07 45.51 255.83 45.51Z M271.53 45.15L271.53 45.15Q271.14 45.15 270.9 45.09Q270.66 45 270.66 44.82L270.66 44.82Q270.66 44.46 271.65 44.28L271.65 44.28Q272.79 44.07 273.33 43.59Q273.87 43.11 273.87 42.03L273.87 42.03L273.87 28.53Q273.87 27.45 273.45 27Q273 26.55 271.86 26.34L271.86 26.34Q271.35 26.25 271.11 26.1Q270.87 25.95 270.87 25.74L270.87 25.74Q270.87 25.56 271.11 25.5Q271.35 25.41 271.74 25.41L271.74 25.41Q272.88 25.41 273.69 25.44Q274.47 25.47 275.22 25.5Q276 25.5 277.05 25.5L277.05 25.5Q278.04 25.5 279.15 25.5Q280.23 25.47 281.16 25.47L281.16 25.47Q282.18 25.44 282.9 25.41Q283.59 25.41 283.71 25.41L283.71 25.41Q283.86 25.41 284.04 25.47Q284.22 25.53 284.25 25.68L284.25 25.68Q284.4 26.52 284.55 27.33Q284.7 28.17 284.7 28.77L284.7 28.77Q284.7 29.04 284.58 29.13Q284.43 29.22 284.28 29.22L284.28 29.22Q284.13 29.22 284.07 29.13Q284.01 29.07 283.95 28.92L283.95 28.92Q283.8 28.41 283.65 27.93Q283.5 27.48 283.29 27.27L283.29 27.27Q282.87 26.79 282.36 26.61Q281.85 26.46 281.28 26.46L281.28 26.46L277.35 26.46Q277.11 26.46 276.69 26.73Q276.27 27 276.27 27.42L276.27 27.42L276.27 33.78Q276.27 34.05 276.45 34.23Q276.6 34.44 276.81 34.44L276.81 34.44L279.78 34.44Q280.65 34.44 280.98 34.11Q281.31 33.81 281.52 32.97L281.52 32.97Q281.7 32.31 282.06 32.31L282.06 32.31Q282.18 32.31 282.33 32.43Q282.45 32.55 282.45 32.79L282.45 32.79Q282.45 32.91 282.45 33.33Q282.42 33.75 282.39 34.2Q282.36 34.65 282.36 34.89L282.36 34.89Q282.36 35.19 282.39 35.67Q282.39 36.18 282.42 36.63Q282.42 37.08 282.42 37.2L282.42 37.2Q282.42 37.41 282.39 37.56Q282.33 37.71 282.15 37.71L282.15 37.71Q281.7 37.71 281.46 36.75L281.46 36.75Q281.28 36.06 280.98 35.73Q280.68 35.4 280.08 35.4L280.08 35.4L277.29 35.4Q276.78 35.4 276.54 35.52Q276.27 35.67 276.27 36.18L276.27 36.18L276.27 41.94Q276.27 43.08 276.75 43.5Q277.23 43.95 278.25 43.95L278.25 43.95L280.47 43.95Q281.43 43.95 282.09 43.83Q282.72 43.74 283.2 43.44L283.2 43.44Q283.68 43.11 284.07 42.57Q284.43 42.03 284.91 41.13L284.91 41.13Q285 40.95 285.12 40.83Q285.24 40.71 285.39 40.74L285.39 40.74Q285.54 40.77 285.63 40.86Q285.72 40.98 285.72 41.16L285.72 41.16Q285.72 41.43 285.57 42.09Q285.42 42.78 285.21 43.5Q284.97 44.22 284.79 44.64L284.79 44.64Q284.7 44.85 284.64 45Q284.55 45.15 284.37 45.15L284.37 45.15Q282.93 45.15 281.7 45.12Q280.47 45.09 279.36 45.06Q278.25 45.03 277.2 45Q276.12 44.97 274.98 44.97L274.98 44.97Q274.32 44.97 273.84 45.03Q273.36 45.06 272.85 45.12Q272.34 45.15 271.53 45.15Z M302.89 45.15L302.89 45.15Q302.5 45.15 302.26 45.09Q302.02 45 302.02 44.82L302.02 44.82Q302.02 44.61 302.26 44.49Q302.5 44.37 303.01 44.28L303.01 44.28Q304.15 44.07 304.75 43.53Q305.35 43.02 305.35 41.94L305.35 41.94L305.35 30.3Q305.35 28.92 305.29 28.17Q305.23 27.45 305.11 27.15Q304.96 26.85 304.72 26.82L304.72 26.82Q304.3 26.73 303.85 26.7Q303.37 26.7 302.59 26.7L302.59 26.7L301.18 26.7Q300.46 26.7 299.77 26.97Q299.05 27.27 298.72 27.87L298.72 27.87Q298.63 28.02 298.42 28.29Q298.21 28.59 297.97 28.8Q297.73 29.01 297.49 29.01L297.49 29.01Q297.37 29.01 297.34 28.89Q297.28 28.77 297.28 28.62L297.28 28.62Q297.28 28.32 297.43 28.02L297.43 28.02Q297.85 27.15 298.06 26.46Q298.24 25.8 298.36 24.87L298.36 24.87Q298.42 24.36 298.6 24.27Q298.75 24.18 298.87 24.18L298.87 24.18Q298.99 24.18 299.26 24.54Q299.5 24.9 299.62 25.14L299.62 25.14Q299.8 25.44 300.46 25.59Q301.09 25.74 301.72 25.74L301.72 25.74L312.28 25.74Q313.33 25.74 313.99 25.62Q314.65 25.5 315.13 25.29L315.13 25.29Q315.49 25.11 315.73 24.9Q315.94 24.69 316.3 24.69L316.3 24.69Q316.39 24.69 316.45 24.9Q316.51 25.14 316.51 25.38L316.51 25.38Q316.51 25.53 316.48 25.8Q316.42 26.07 316.39 26.22L316.39 26.22Q316.3 26.76 316.24 27Q316.15 27.24 316.12 27.42Q316.09 27.6 316.09 27.99L316.09 27.99L316.09 28.35Q316.09 28.62 315.97 28.95Q315.85 29.31 315.61 29.31L315.61 29.31Q315.4 29.31 315.28 28.98Q315.16 28.65 315.04 28.08L315.04 28.08Q314.92 27.45 314.32 27.06Q313.72 26.7 312.28 26.7L312.28 26.7L309.25 26.7Q308.59 26.7 308.26 26.88Q307.93 27.06 307.84 27.78Q307.75 28.5 307.75 30.15L307.75 30.15L307.75 41.94Q307.75 43.02 308.38 43.53Q309.01 44.07 310.12 44.28L310.12 44.28Q310.63 44.37 310.87 44.49Q311.11 44.61 311.11 44.82L311.11 44.82Q311.11 45 310.87 45.09Q310.63 45.15 310.24 45.15L310.24 45.15Q309.43 45.15 308.92 45.12Q308.38 45.06 307.9 45.03Q307.42 45 306.73 45L306.73 45Q305.98 45 305.44 45.03Q304.87 45.06 304.3 45.12Q303.7 45.15 302.89 45.15Z" fill="#201e1d"></path>
  </g>
</svg>